<svg width="1340" height="600" xmlns="http://www.w3.org/2000/svg">
 <!-- Created with Method Draw - http://github.com/duopixel/Method-Draw/ -->
 <g>
  <title>background</title>
  <rect fill="#000000" id="canvas_background" height="602" width="1342" y="-1" x="-1"/>
  <g display="none" overflow="visible" y="0" x="0" height="100%" width="100%" id="canvasGrid">
   <rect fill="url(#gridpattern)" stroke-width="0" y="0" x="0" height="100%" width="100%"/>
  </g>
 </g>
 <g>
  <title>Layer 1</title>
  <rect stroke="#000" id="svg_11" height="14" width="69.000002" y="155.128912" x="123.833311" stroke-width="0" fill="#fff"/>
  <path stroke="#000" transform="rotate(90 202.04998779296875,162.46455383300784) " id="svg_12" d="m187.716661,175.0062l14.333333,-25.083332l14.333333,25.083332l-28.666666,0z" fill-opacity="null" stroke-opacity="null" stroke-width="0" fill="#fff"/>
  <rect stroke="#000" id="svg_18" height="14" width="34.332921" y="379.477591" x="277.591696" stroke-width="0" fill="#fff"/>
  <path stroke="#000" transform="rotate(90 316.9407653808594,386.81323242187506) " id="svg_19" d="m302.607424,399.354882l14.33334,-25.08333l14.33333,25.08333l-28.66667,0z" fill-opacity="null" stroke-opacity="null" stroke-width="0" fill="#fff"/>
  <rect stroke="#000" id="svg_20" height="14" width="68.66601" y="152.105076" x="318.040247" stroke-width="0" fill="#fff"/>
  <rect stroke="#000" transform="rotate(90 380.20629882812506,252.53062438964847) " id="svg_21" height="14" width="199.66727" y="245.53063" x="280.372654" stroke-width="0" fill="#fff"/>
  <rect stroke="#000" id="svg_24" height="14" width="28.999902" y="265.85206" x="382.215823" stroke-width="0" fill="#fff"/>
  <path stroke="#000" transform="rotate(90 418.43914794921875,273.1876831054688) " id="svg_25" d="m404.105826,285.729352l14.33334,-25.08333l14.33333,25.08333l-28.66667,0z" fill-opacity="null" stroke-opacity="null" stroke-width="0" fill="#fff"/>
  <rect id="svg_27" height="104" width="104" y="108.265671" x="20.663879" stroke-opacity="null" stroke-width="0" stroke="#000" fill="#7DD8B5"/>
  <rect id="svg_28" height="104" width="104" y="333.50288" x="174.391666" stroke-opacity="null" stroke-width="0" stroke="#000" fill="#7DD8B5"/>
  <rect stroke="#000" id="svg_29" height="14" width="27.332909" y="379.477591" x="124.234328" stroke-width="0" fill="#fff"/>
  <path stroke="#000" transform="rotate(90 160.5740051269531,386.81323242187506) " id="svg_30" d="m146.240673,399.35488l14.33334,-25.08333l14.33333,25.08333l-28.66667,0z" fill-opacity="null" stroke-opacity="null" stroke-width="0" fill="#fff"/>
  <rect id="svg_26" height="104" width="104" y="333.554192" x="20.663879" stroke-opacity="null" stroke-width="0" stroke="#000" fill="#7DD8B5"/>
  <rect id="svg_32" height="104" width="104" y="106.72374" x="214.629124" stroke-opacity="null" stroke-width="0" stroke="#000" fill="#7DD8B5"/>
  <rect id="svg_33" height="104" width="104" y="333.50288" x="329.995403" stroke-opacity="null" stroke-width="0" stroke="#000" fill="#7DD8B5"/>
  <rect id="svg_34" height="104" width="104" y="221.851756" x="433.157656" stroke-opacity="null" stroke-width="0" stroke="#000" fill="#7DD8B5"/>
  <rect stroke="#000" id="svg_35" height="14" width="56.999266" y="264.899712" x="537.091306" stroke-width="0" fill="#fff"/>
  <rect stroke="#000" transform="rotate(90 558.1992187500001,275.07443237304693) " id="svg_36" height="14" width="302.501522" y="268.074439" x="406.94846" stroke-width="0" fill="#fff"/>
  <path stroke="#000" transform="rotate(90 598.4600830078126,272.1876525878907) " id="svg_38" d="m584.126734,284.729318l14.33334,-25.08333l14.33333,25.08333l-28.66667,0z" fill-opacity="null" stroke-opacity="null" stroke-width="0" fill="#fff"/>
  <rect stroke="#000" id="svg_39" height="14" width="38.999674" y="123.952739" x="553.815771" stroke-width="0" fill="#fff"/>
  <path stroke="#000" transform="rotate(90 596.5446166992189,131.28836059570318) " id="svg_40" d="m582.211242,143.830031l14.33334,-25.08333l14.33333,25.08333l-28.66667,0z" fill-opacity="null" stroke-opacity="null" stroke-width="0" fill="#fff"/>
  <rect stroke="#000" id="svg_41" height="14" width="37.332895" y="412.527099" x="552.959317" stroke-width="0" fill="#fff"/>
  <path stroke="#000" transform="rotate(90 595.9998779296876,419.88806152343756) " id="svg_42" d="m581.666574,432.429716l14.33334,-25.08333l14.33333,25.08333l-28.66667,0z" fill-opacity="null" stroke-opacity="null" stroke-width="0" fill="#fff"/>
  <rect id="svg_43" height="104" width="104" y="221.851756" x="610.792085" stroke-opacity="null" stroke-width="0" stroke="#000" fill="#7DD8B5"/>
  <rect id="svg_44" height="104" width="104" y="367.859965" x="610.792085" stroke-opacity="null" stroke-width="0" stroke="#000" fill="#7DD8B5"/>
  <rect id="svg_45" height="104" width="104" y="78.623454" x="610.792085" stroke-opacity="null" stroke-width="0" stroke="#000" fill="#7DD8B5"/>
  <rect id="svg_46" height="104" width="104" y="221.851756" x="727.092927" stroke-opacity="null" stroke-width="0" stroke="#000" fill="#7DD8B5"/>
  <rect id="svg_47" height="104" width="104" y="366.859933" x="727.092927" stroke-opacity="null" stroke-width="0" stroke="#000" fill="#7DD8B5"/>
  <rect id="svg_48" height="104" width="104" y="78.623454" x="727.092927" stroke-opacity="null" stroke-width="0" stroke="#000" fill="#7DD8B5"/>
  <rect id="svg_49" height="104" width="104" y="220.270617" x="891.223251" stroke-opacity="null" stroke-width="0" stroke="#000" fill="#7DD8B5"/>
  <rect stroke="#000" id="svg_50" height="14" width="39.999342" y="264.899712" x="830.62648" stroke-width="0" fill="#fff"/>
  <rect stroke="#000" transform="rotate(90 852.7832641601562,275.7410888671876) " id="svg_51" height="14" width="299.834748" y="268.741096" x="702.865861" stroke-width="0" fill="#fff"/>
  <path stroke="#000" transform="rotate(90 878.9330444335938,272.18765258789074) " id="svg_52" d="m864.599756,284.729318l14.33334,-25.08333l14.33333,25.08333l-28.66667,0z" fill-opacity="null" stroke-opacity="null" stroke-width="0" fill="#fff"/>
  <rect stroke="#000" id="svg_53" height="14" width="27.999551" y="125.618463" x="830.287784" stroke-width="0" fill="#fff"/>
  <rect stroke="#000" id="svg_54" height="14" width="25.332751" y="411.861407" x="830.098504" stroke-width="0" fill="#fff"/>
  <rect id="svg_55" height="104" width="104" y="220.270617" x="1034.448532" stroke-opacity="null" stroke-width="0" stroke="#000" fill="#7DD8B5"/>
  <rect stroke="#000" id="svg_56" height="14" width="18.999062" y="264.899712" x="994.852011" stroke-width="0" fill="#fff"/>
  <path stroke="#000" transform="rotate(90 1022.1583251953125,272.18765258789074) " id="svg_57" d="m1007.825038,284.729318l14.33334,-25.08333l14.33333,25.08333l-28.66667,0z" fill-opacity="null" stroke-opacity="null" stroke-width="0" fill="#fff"/>
  <rect stroke="#000" id="svg_58" height="14" width="72.999431" y="264.899712" x="1137.664231" stroke-width="0" fill="#fff"/>
  <rect stroke="#000" transform="rotate(90 1155.7720947265627,275.074432373047) " id="svg_59" height="14" width="302.501522" y="268.074439" x="1004.521336" stroke-width="0" fill="#fff"/>
  <path stroke="#000" transform="rotate(90 1218.0332031250002,272.18765258789074) " id="svg_60" d="m1203.699867,284.729318l14.33334,-25.08333l14.33333,25.08333l-28.66667,0z" fill-opacity="null" stroke-opacity="null" stroke-width="0" fill="#fff"/>
  <rect stroke="#000" id="svg_61" height="14" width="63.999967" y="122.952727" x="1126.388341" stroke-width="0" fill="#fff"/>
  <path stroke="#000" transform="rotate(90 1194.1175537109375,131.28836059570327) " id="svg_62" d="m1179.784118,143.830031l14.33334,-25.08333l14.33333,25.08333l-28.66667,0z" fill-opacity="null" stroke-opacity="null" stroke-width="0" fill="#fff"/>
  <rect stroke="#000" id="svg_63" height="14" width="63.333214" y="412.527099" x="1124.531869" stroke-width="0" fill="#fff"/>
  <path stroke="#000" transform="rotate(90 1193.7352294921877,419.8880615234376) " id="svg_64" d="m1179.401729,432.429716l14.33334,-25.08333l14.33333,25.08333l-28.66667,0z" fill-opacity="null" stroke-opacity="null" stroke-width="0" fill="#fff"/>
  <rect id="svg_65" height="104" width="104" y="221.851756" x="1229.578412" stroke-opacity="null" stroke-width="0" stroke="#000" fill="#7DD8B5"/>
  <rect id="svg_66" height="104" width="104" y="367.859965" x="1208.364961" stroke-opacity="null" stroke-width="0" stroke="#000" fill="#7DD8B5"/>
  <rect id="svg_67" height="104" width="104" y="77.623442" x="1208.364961" stroke-opacity="null" stroke-width="0" stroke="#000" fill="#7DD8B5"/>
  <path stroke="#000" transform="rotate(-90 1116.1193847656252,418.88806152343744) " id="svg_68" d="m1101.785988,431.429704l14.33334,-25.08333l14.33333,25.08333l-28.66667,0z" fill-opacity="null" stroke-opacity="null" stroke-width="0" fill="#fff"/>
  <path stroke="#000" transform="rotate(-90 1116.1193847656252,130.82220458984366) " id="svg_69" d="m1101.785988,143.363847l14.33334,-25.08333l14.33333,25.08333l-28.66667,0z" fill-opacity="null" stroke-opacity="null" stroke-width="0" fill="#fff"/>
  <rect id="svg_70" height="104" width="104" y="367.859965" x="998.672257" stroke-opacity="null" stroke-width="0" stroke="#000" fill="#7DD8B5"/>
  <rect id="svg_71" height="104" width="104" y="77.623442" x="998.672257" stroke-opacity="null" stroke-width="0" stroke="#000" fill="#7DD8B5"/>
 </g>
</svg>